<?xml version="1.0" standalone="no"?>
<!DOCTYPE svg PUBLIC "-//W3C//DTD SVG 20010904//EN"
 "http://www.w3.org/TR/2001/REC-SVG-20010904/DTD/svg10.dtd">
<svg version="1.0" xmlns="http://www.w3.org/2000/svg"
 width="900.000000pt" height="900.000000pt" viewBox="0 0 900.000000 900.000000"
 preserveAspectRatio="xMidYMid meet">
<metadata>
Created by potrace 1.10, written by Peter Selinger 2001-2011
</metadata>
<g transform="translate(0.000000,900.000000) scale(0.100000,-0.100000)"
fill="#ffffff" stroke="none">
<path d="M4283 8988 c1 -9 -28 -15 -103 -21 -304 -22 -563 -66 -883 -151 -170
-45 -444 -143 -622 -223 -174 -79 -392 -193 -500 -262 -22 -14 -47 -30 -57
-36 -103 -63 -152 -95 -198 -130 -30 -22 -65 -47 -76 -55 -303 -208 -766 -671
-974 -974 -8 -11 -34 -47 -57 -78 -24 -31 -43 -59 -43 -62 0 -3 -20 -35 -45
-72 -25 -36 -45 -67 -45 -69 0 -2 -13 -23 -29 -47 -133 -200 -332 -634 -432
-943 -34 -105 -39 -122 -55 -182 -179 -673 -210 -1310 -98 -1968 27 -157 48
-250 110 -482 16 -60 84 -263 114 -343 12 -30 24 -64 28 -75 3 -11 11 -31 19
-45 7 -14 13 -28 13 -32 0 -14 170 -368 200 -418 5 -8 37 -62 71 -120 57 -96
117 -188 212 -328 174 -255 483 -589 768 -832 353 -302 793 -567 1225 -739
118 -47 334 -121 424 -146 36 -9 85 -23 110 -30 47 -14 138 -35 255 -59 73
-16 215 -38 348 -56 102 -13 976 -13 1070 0 218 32 288 43 343 56 33 8 69 14
79 14 10 0 41 6 69 14 28 8 105 29 171 47 117 32 295 87 345 107 14 6 79 32
145 58 120 47 416 188 510 243 28 16 68 39 90 51 68 37 387 252 445 300 30 25
65 53 77 61 60 41 215 182 372 339 161 161 241 250 389 434 62 77 322 464 322
479 0 6 7 18 15 27 22 25 186 352 239 478 163 389 287 849 321 1195 4 45 12
70 21 74 21 8 21 968 0 976 -9 4 -16 29 -20 69 -17 166 -59 389 -113 593 -49
188 -167 531 -208 607 -8 14 -15 31 -15 37 0 6 -40 91 -89 188 -181 363 -365
647 -601 922 -548 643 -1226 1103 -2021 1371 -340 115 -752 196 -1088 215
-121 7 -144 12 -135 26 3 5 -84 9 -205 9 -163 0 -210 -3 -208 -12z m422 -388
c280 -13 436 -36 820 -121 22 -4 92 -25 155 -44 63 -20 129 -40 145 -45 17 -4
55 -18 85 -30 30 -12 66 -25 80 -30 43 -14 231 -97 330 -145 492 -242 947
-594 1316 -1020 107 -123 371 -487 393 -540 2 -5 15 -27 28 -47 125 -200 294
-578 375 -838 11 -36 26 -83 33 -105 16 -45 64 -250 88 -370 46 -229 77 -549
77 -800 0 -174 -26 -495 -50 -630 -46 -248 -60 -315 -99 -460 -32 -116 -117
-363 -151 -441 -17 -36 -30 -70 -30 -75 0 -33 -223 -454 -315 -594 -22 -33
-44 -68 -50 -77 -21 -36 -121 -175 -155 -218 -311 -384 -532 -597 -912 -874
-43 -31 -80 -56 -82 -56 -3 0 -45 -27 -95 -60 -50 -33 -93 -60 -95 -60 -2 0
-37 -19 -78 -43 -105 -61 -293 -153 -448 -217 -267 -112 -585 -201 -925 -260
-140 -24 -479 -50 -655 -50 -177 0 -487 24 -631 50 -289 50 -413 81 -669 165
-657 216 -1269 615 -1738 1135 -199 220 -363 440 -507 681 -131 219 -295 582
-368 814 -161 512 -223 978 -198 1485 12 235 32 393 82 642 19 96 25 123 69
283 87 323 265 730 444 1017 116 186 240 359 357 500 190 229 503 523 728 685
69 49 292 198 326 217 17 9 53 30 80 47 87 51 385 195 505 242 422 167 869
266 1290 287 203 10 249 10 445 0z"/>
<path d="M4320 7919 c-366 -20 -728 -88 -1055 -198 -191 -64 -364 -137 -505
-213 -52 -28 -108 -59 -125 -68 -77 -41 -252 -157 -360 -238 -143 -108 -222
-177 -376 -333 -216 -217 -366 -416 -523 -690 -43 -74 -64 -121 -60 -132 6
-16 42 -17 433 -17 234 0 431 4 437 8 6 4 48 53 92 108 436 544 997 881 1657
998 191 33 345 40 612 27 351 -17 509 -43 803 -132 52 -16 113 -36 135 -45 22
-9 58 -23 80 -32 63 -24 295 -140 355 -177 30 -19 62 -38 70 -42 49 -24 293
-205 375 -278 74 -67 217 -210 259 -259 39 -46 107 -129 125 -151 4 -6 25 -35
46 -65 21 -30 43 -58 49 -62 20 -13 800 -10 814 4 9 9 0 34 -40 107 -28 53
-62 113 -74 133 -13 21 -24 40 -24 42 0 4 -32 54 -119 186 -192 292 -482 596
-776 816 -355 265 -799 476 -1232 588 -272 70 -390 90 -653 111 -191 16 -194
16 -420 4z"/>
<path d="M3596 6291 l-100 -6 -26 -80 c-15 -44 -41 -127 -59 -185 -18 -58 -39
-121 -46 -140 -8 -19 -41 -123 -75 -230 -54 -171 -89 -280 -184 -575 -13 -38
-38 -117 -56 -175 -18 -58 -39 -121 -46 -140 -7 -19 -27 -82 -45 -140 -17 -58
-37 -121 -45 -140 -7 -19 -40 -123 -74 -230 -34 -107 -74 -233 -90 -280 -15
-47 -56 -173 -90 -280 -34 -107 -81 -253 -104 -325 -24 -71 -64 -197 -90 -280
-27 -82 -67 -208 -91 -280 -23 -71 -48 -149 -55 -173 -21 -67 -32 -69 -77 -15
-40 49 -170 224 -188 254 -5 9 -40 66 -76 125 -78 130 -159 296 -212 434 -132
342 -191 722 -168 1080 22 341 92 627 228 934 28 63 33 80 22 87 -8 5 -190 9
-405 9 -359 0 -393 -1 -412 -17 -25 -23 -85 -260 -126 -498 -100 -580 -79
-1109 65 -1630 78 -284 222 -619 354 -825 118 -185 233 -348 308 -435 14 -16
44 -52 67 -80 165 -197 474 -473 703 -628 98 -67 183 -117 200 -117 14 0 51
93 87 215 5 17 59 176 120 355 61 179 115 339 120 355 5 17 65 197 134 400 70
204 185 546 258 760 176 523 275 814 288 850 21 60 92 271 100 300 14 50 102
300 106 304 15 15 37 -33 212 -454 25 -60 51 -116 58 -124 10 -11 79 -15 357
-19 190 -3 356 -2 370 2 15 3 29 16 32 29 8 27 63 171 80 212 7 17 20 49 29
73 82 217 103 267 116 267 7 0 20 -18 27 -40 29 -79 126 -353 168 -475 48
-136 138 -391 161 -455 8 -22 25 -71 38 -110 14 -38 48 -135 76 -215 28 -80
62 -176 76 -215 13 -38 46 -135 75 -215 28 -80 68 -194 89 -255 21 -60 62
-175 90 -255 28 -80 62 -176 76 -215 13 -38 40 -115 59 -170 61 -170 116 -328
131 -370 7 -22 29 -85 49 -140 19 -55 51 -147 71 -205 44 -128 63 -170 77
-170 25 0 301 203 479 353 121 101 381 360 470 467 53 63 220 286 245 325 129
205 246 422 303 565 12 30 26 66 32 80 70 172 145 468 185 725 26 172 26 694
0 875 -42 292 -103 544 -180 743 l-30 77 -396 -2 -396 -3 -3 -23 c-2 -13 6
-47 18 -75 38 -89 108 -306 130 -407 63 -287 85 -459 84 -685 0 -434 -90 -818
-284 -1215 -48 -97 -156 -280 -203 -343 -18 -23 -44 -60 -59 -82 -15 -22 -52
-67 -83 -100 -66 -71 -71 -69 -105 50 -13 44 -40 134 -61 200 -22 66 -53 165
-71 220 -32 102 -77 245 -102 325 -15 46 -81 255 -138 435 -17 55 -43 138 -58
185 -15 47 -49 153 -75 235 -25 83 -52 168 -60 190 -7 22 -34 108 -60 190 -26
83 -53 168 -60 190 -7 22 -35 108 -60 190 -26 83 -60 191 -76 240 -40 124 -49
153 -119 375 -34 107 -68 215 -76 240 -43 136 -74 235 -99 315 -15 50 -32 96
-38 103 -10 13 -287 15 -487 3 l-105 -6 -17 -35 c-9 -19 -23 -53 -32 -75 -81
-215 -151 -399 -183 -480 -8 -22 -21 -57 -29 -77 -56 -152 -81 -208 -91 -208
-12 0 -35 40 -44 75 -4 16 -74 206 -156 420 l-148 390 -200 1 c-110 0 -245 -2
-299 -5z"/>
</g>
</svg>
